<svg id="Layer_1" xmlns="http://www.w3.org/2000/svg" xmlns:xlink="http://www.w3.org/1999/xlink" width="612" height="612" viewBox="0 0 612 612" enable-background="new 0 0 612 612"><path fill="#414042" d="M594.998 529.799c0 31.59-25.609 57.199-57.199 57.199H80.201c-31.59.0-57.2-25.609-57.2-57.199V72.201c0-31.59 25.609-57.2 57.2-57.2h457.598c31.59.0 57.199 25.609 57.199 57.2V529.799z"/><g><path fill="#f1f2f2" d="M473.819 209.073l-54.694 52.634h-1.028V191.23h76.545l81.682-78.6v-.269H418.097 295.345 280.36 167.665 42.45v4.635 74.233 285.749l112.692-124.196h.002V191.23h12.521v235.474L280.36 318.255v0V191.23h14.985v184.763h.003v20.118c6.099 17.832 23.413 30.791 43.963 31.251-.244.006-.483.015-.724.02h1.552c.098.0.191.004.284.004.079.0.153-.004.229-.004h173.459c.123.0.25.004.38.004.103.0.206-.004.305-.004h1.05.047c-.016-.008-.031-.014-.047-.02 33.563-.519 60.695-20.137 61.934-44.612h.04.019v-8.877-87.247-24.919-52.634H473.819zM480.416 317.635v28.557h-62.319v-59.565h16.896 38.826 6.597V317.635z"/></g></svg>