<?xml version="1.0" encoding="utf-8"?>
<!-- Generator: Adobe Illustrator 16.0.0, SVG Export Plug-In . SVG Version: 6.00 Build 0)  -->
<!DOCTYPE svg PUBLIC "-//W3C//DTD SVG 1.1//EN" "http://www.w3.org/Graphics/SVG/1.1/DTD/svg11.dtd">
<svg version="1.1" id="Layer_1" xmlns="http://www.w3.org/2000/svg" xmlns:xlink="http://www.w3.org/1999/xlink" x="0px" y="0px"
	 width="441.36px" height="546.35px" viewBox="0 0 441.36 546.35" enable-background="new 0 0 441.36 546.35" xml:space="preserve">
<path d="M269.96,61.704c17.998,0,29.996,11.999,29.996,29.996c0,26.996-14.569,59.992-32.995,95.987
	c29.139-32.996,68.134-64.706,108.413-64.706c17.569,0,29.567,11.999,29.567,29.567c0,75.847-61.277,115.699-61.277,205.258
	c0,39.424,28.282,65.133,72.848,65.133c9.855,0,17.997-1.285,24.854-2.998c0,0-19.283,62.133-93.844,62.133
	c-74.133,0-81.418-83.988-81.418-102.842c0-94.273,103.271-216.828,66.849-216.828c-25.283,0-116.556,107.986-125.983,194.544
	c0,3.428-0.428,7.285-0.428,10.713c0,14.998,4.713,16.283,4.713,20.568c0,3.857-9.427,11.998-27.425,11.998
	c-19.283,0-41.565-17.996-41.565-56.992c0-90.416,121.697-241.68,85.273-241.68c-23.996,0-116.126,117.412-137.124,192.403
	c-2.143,9.426-3.428,18.426-3.428,27.424c0,17.141,4.714,19.711,4.714,23.568c0,3.428-11.142,12.428-28.282,12.428
	c-17.569,0-40.709-12.855-40.709-52.279c0-43.709,59.992-133.268,59.992-189.403c0-36.423-19.283-58.277-59.992-58.277
	c-8.999,0-16.283,0.857-22.711,2.571c0,0,17.569-56.992,85.702-56.992c67.705,0,74.562,77.132,74.562,94.273
	c0,11.57-1.286,23.14-3.428,34.709C186.401,97.271,227.538,61.704,269.96,61.704z"/>
</svg>
